#!OML:ASF I:\Actors\actors\Patient Classification 1\Patient 1\Session 1\Subject1.ASF
:FULLY-SPECIFIED
:DEGREES
784
root -0.943168 17.4207 9.7392 9.00336 -3.08075 -11.8937
lowerback 3.21563 6.14675 10.5269
upperback -11.1002 9.09335 -3.56265
thorax -11.8013 3.17243 -10.8585
lowerneck -12.2225 8.1031 6.97421
upperneck 36.7535 8.74638 5.34079
head 14.9196 5.54486 2.45207
rclavicle 4.8901e-014 -2.22639e-014
rhumerus -47.4565 64.36 -132.562
rradius 84.268
rwrist -47.9592
rhand 23.318 -65.0463
rfingers 7.12502
rthumb 47.6126 992.562
lclavicle 4.8901e-014 -2.22639e-014
lhumerus -62.1154 -14.3135 90.8437
lradius 96.2498
lwrist 82.3144
lhand -27.2972 23.4588
lfingers 7.12502
lthumb -0.707116 53.4373
rfemur -0.184899 16.6586 33.2204
rtibia 1.18807
rfoot -14.2465 -9.64147
rtoes -0.810142
lfemur 7.29378 -38.5393 -4.19396
ltibia -2.96123
lfoot -32.964 53.036
ltoes 13.5949
785
root -0.979471 17.4199 9.74168 8.96446 -2.77644 -12.0028
lowerback 2.67921 6.11988 10.8474
upperback -11.1103 9.04856 -3.3022
thorax -11.5014 3.16598 -10.6562
lowerneck -12.2415 7.91502 6.73144
upperneck 36.9988 8.47634 5.48506
head 15.0135 5.42167 2.52315
rclavicle 3.53837e-014 -2.8625e-014
rhumerus -46.6284 64.5706 -131.875
rradius 84.1126
rwrist -48.0892
rhand 23.588 -65.378
rfingers 7.12502
rthumb 47.8617 992.345
lclavicle 3.53837e-014 -2.8625e-014
lhumerus -61.4922 -15.0506 91.4481
lradius 95.8327
lwrist 82.1276
lhand -27.5202 23.6033
lfingers 7.12502
lthumb -0.922561 53.581
rfemur -0.271226 16.4302 33.5374
rtibia 1.43063
rfoot -14.3317 -9.63909
rtoes -0.664078
lfemur 6.36394 -36.7744 -3.12336
ltibia -2.53914
lfoot -30.3672 51.6655
ltoes 11.7039
786
root -1.01189 17.4198 9.74584 8.86377 -2.73193 -11.5703
lowerback 2.2342 6.15155 10.542
upperback -11.072 9.01636 -3.18093
thorax -11.2452 3.21529 -10.2761
lowerneck -12.0639 7.71487 6.72538
upperneck 36.992 8.22254 5.38483
head 14.9744 5.30203 2.43076
rclavicle -2.70347e-014 3.81667e-014
rhumerus -45.5553 64.7147 -130.935
rradius 83.9535
rwrist -48.039
rhand 23.7058 -65.5486
rfingers 7.12502
rthumb 47.9703 992.225
lclavicle -2.70347e-014 3.81667e-014
lhumerus -60.5857 -15.7992 91.6839
lradius 95.2639
lwrist 82.1313
lhand -27.6607 23.7438
lfingers 7.12502
lthumb -1.05826 53.7209
rfemur -0.273698 16.5043 33.1874
rtibia 1.62676
rfoot -14.4283 -9.74507
rtoes -0.370831
lfemur 5.9228 -35.7696 -3.17654
ltibia -2.17255
lfoot -29.2233 50.8287
ltoes 10.8905
787
root -1.03558 17.4177 9.74502 8.62512 -2.62609 -11.2057
lowerback 2.06251 6.11542 10.3503
upperback -10.9755 8.93775 -3.01916
thorax -11.0927 3.22243 -9.95041
lowerneck -11.9426 7.5363 6.68029
upperneck 36.9316 7.99583 5.30697
head 14.9179 5.19012 2.35813
rclavicle 3.18055e-015 1.59028e-014
rhumerus -44.1653 64.2172 -129.751
rradius 83.5598
rwrist -47.1924
rhand 23.9718 -65.7514
rfingers 7.12502
rthumb 48.2155 992.137
lclavicle 3.18055e-015 1.59028e-014
lhumerus -59.7158 -16.581 91.5862
lradius 95.1398
lwrist 82.5309
lhand -27.9167 23.9499
lfingers 7.12502
lthumb -1.30549 53.9256
rfemur -0.0871627 16.5255 32.9304
rtibia 1.73118
rfoot -14.5009 -9.85819
rtoes -0.309982
lfemur 5.79034 -35.1091 -3.39487
ltibia -1.90619
lfoot -28.1781 50.2772
ltoes 9.78314
788
root -1.05399 17.4142 9.74108 8.3395 -2.32159 -11.1164
lowerback 2.03788 6.0253 10.5029
upperback -10.8384 8.83528 -2.81819
thorax -10.9556 3.18587 -9.78912
lowerneck -11.9618 7.37497 6.61873
upperneck 36.8563 7.76865 5.27535
head 14.8831 5.08063 2.3145
rclavicle -5.88403e-014 7.95139e-015
rhumerus -42.0952 62.3408 -128.176
rradius 82.7494
rwrist -45.0493
rhand 24.7955 -66.565
rfingers 7.12502
rthumb 48.9734 991.689
lclavicle -5.88403e-014 7.95139e-015
lhumerus -59.2772 -17.555 91.262
lradius 96.0297
lwrist 82.7387
lhand -28.1594 24.2798
lfingers 7.12502
lthumb -1.53989 54.254
rfemur 0.206346 16.5042 33.0307
rtibia 1.74554
rfoot -14.5791 -10.0965
rtoes -0.199371
lfemur 5.71597 -34.654 -3.32437
ltibia -1.73337
lfoot -26.9883 49.8042
ltoes 8.44759
789
root -1.06837 17.4117 9.73841 8.10244 -1.95509 -11.0579
lowerback 1.96652 5.94959 10.7038
upperback -10.6656 8.74419 -2.6559
thorax -10.7344 3.15744 -9.68756
lowerneck -12.0257 7.19398 6.59938
upperneck 36.7058 7.52835 5.15124
head 14.8303 4.95676 2.2219
rclavicle -8.34896e-015 4.77083e-015
rhumerus -40.6631 63.3484 -126.775
rradius 82.6626
rwrist -45.3572
rhand 24.1629 -65.834
rfingers 7.12502
rthumb 48.3915 992.138
lclavicle -8.34896e-015 4.77083e-015
lhumerus -57.8867 -18.2728 90.7426
lradius 95.3248
lwrist 81.7304
lhand -26.866 24.225
lfingers 7.12502
lthumb -0.290649 54.2045
rfemur 0.498199 16.5146 33.1527
rtibia 1.67935
rfoot -14.6492 -10.447
rtoes 0.180605
lfemur 5.68681 -34.4129 -3.26213
ltibia -1.69713
lfoot -26.0225 49.4465
ltoes 7.51077
